<svg width="300" height="300" viewBox="0 0 300 300" fill="none" xmlns="http://www.w3.org/2000/svg">
<g clip-path="url(#clip0_11_2)">
<circle cx="150" cy="150" r="150" fill="black"/>
<path d="M163.159 150.309L144.452 131.606C144.069 131.221 143.613 130.916 143.112 130.708C142.61 130.5 142.073 130.393 141.53 130.393C140.987 130.393 140.45 130.5 139.948 130.708C139.447 130.916 138.991 131.221 138.608 131.606L66.2797 199.844C65.8786 200.222 65.5574 200.677 65.335 201.181C65.1126 201.685 64.9935 202.229 64.9849 202.78C64.9762 203.332 65.0781 203.879 65.2846 204.39C65.491 204.901 65.7978 205.366 66.1869 205.756L88.8915 228.54C89.2813 228.931 89.7456 229.24 90.2568 229.448C90.7681 229.656 91.316 229.76 91.868 229.752C92.42 229.745 92.9649 229.627 93.4704 229.405C93.9759 229.183 94.4317 228.862 94.8109 228.461L163.152 156.15C163.536 155.767 163.842 155.312 164.05 154.811C164.259 154.31 164.366 153.773 164.367 153.231C164.367 152.688 164.261 152.151 164.054 151.65C163.846 151.149 163.542 150.693 163.159 150.309ZM233.645 130.52L218.557 115.539C217.867 114.851 217.048 114.307 216.146 113.938C215.245 113.568 214.279 113.381 213.305 113.387C211.727 113.389 210.188 113.887 208.908 114.81C208.908 114.663 208.929 114.518 208.939 114.391C209.094 112.157 209.335 108.781 207.152 105.722C204.557 102.224 201.707 98.9215 198.627 95.8422C198.619 95.8322 198.609 95.823 198.599 95.8147C194.021 91.3047 184.055 82.8106 168.789 76.5853C162.997 74.2111 156.796 72.9931 150.536 73C139.687 73 131.437 77.895 128.278 80.7962C125.168 83.6348 123.127 87.4567 122.5 91.6209L128 95C128 95 130.771 94.3125 132.764 93.8347C134.847 93.3903 136.985 93.2571 139.107 93.4394C143.641 93.8141 149.003 96.0656 151.375 97.9391C155.397 101.174 157.332 105.532 157.652 112.064C157.721 113.518 154.379 119.403 149.347 125.759C148.928 126.287 148.718 126.951 148.757 127.624C148.796 128.297 149.08 128.932 149.557 129.409L165.152 145.005C165.652 145.501 166.323 145.786 167.026 145.802C167.729 145.818 168.412 145.563 168.934 145.091C173.083 141.31 179.415 135.466 180.852 134.576C183.495 132.95 185.386 132.637 185.905 132.582C187.252 132.451 188.606 132.736 189.786 133.4C189.791 133.459 189.785 133.519 189.767 133.575C189.748 133.631 189.718 133.683 189.679 133.727L189.053 134.322L188.95 134.418C188.259 135.107 187.711 135.925 187.337 136.827C186.964 137.728 186.772 138.695 186.774 139.67C186.775 140.646 186.97 141.612 187.347 142.512C187.723 143.413 188.274 144.229 188.967 144.916L204.075 159.931C204.591 160.443 205.288 160.731 206.014 160.731C206.741 160.731 207.438 160.443 207.953 159.931L233.624 134.425C233.883 134.17 234.089 133.867 234.231 133.533C234.372 133.199 234.446 132.84 234.448 132.476C234.45 132.113 234.38 131.754 234.242 131.418C234.104 131.082 233.901 130.777 233.645 130.52Z" fill="#FACC15"/>
</g>
<defs>
<clipPath id="clip0_11_2">
<rect width="300" height="300" fill="white"/>
</clipPath>
</defs>
</svg>
