<svg width="300" height="300" viewBox="0 0 300 300" fill="none" xmlns="http://www.w3.org/2000/svg">
<g clip-path="url(#clip0_8_2)">
<circle cx="150" cy="150" r="150" fill="black"/>
<path d="M113.25 225C102.083 225 94.1667 224.417 89.5 223.25C84.8333 222.083 82.5 220.917 82.5 219.75L90 201C94.8333 201.5 103.667 202.083 116.5 202.75C129.5 203.25 145.5 203.5 164.5 203.5H177C181.167 203.5 183.75 202.417 184.75 200.25C185.917 197.917 186.5 194.833 186.5 191C186.5 187.167 185.833 184.083 184.5 181.75C183.333 179.417 180.833 178.25 177 178.25H115.5C103.833 178.25 95.4167 176.083 90.25 171.75C85.0833 167.25 82.5 160.583 82.5 151.75V141.75C82.5 139.417 82.75 136.667 83.25 133.5C83.75 130.333 85 127.167 87 124C89 120.833 92.25 118.25 96.75 116.25C101.25 114.083 107.5 113 115.5 113H184.5C194.5 113 201.583 113.583 205.75 114.75C209.917 115.917 212 117.083 212 118.25L209.5 137C204.667 136.5 195.75 136 182.75 135.5C169.75 134.833 153.833 134.5 135 134.5H122.5C118.333 134.5 115.667 135.667 114.5 138C113.5 140.167 113 142.75 113 145.75C113 148.917 113.5 151.583 114.5 153.75C115.667 155.75 118.333 156.75 122.5 156.75H184C195.333 156.75 203.667 159.083 209 163.75C214.333 168.417 217 174.333 217 181.5V196.25C217 199.25 216.75 202.417 216.25 205.75C215.917 209.083 214.75 212.25 212.75 215.25C210.75 218.083 207.5 220.417 203 222.25C198.5 224.083 192.167 225 184 225H113.25Z" fill="#FACC15"/>
<path d="M155.303 24.6967C152.374 21.7678 147.626 21.7678 144.697 24.6967L96.967 72.4264C94.0381 75.3553 94.0381 80.1041 96.967 83.033C99.8959 85.9619 104.645 85.9619 107.574 83.033L150 40.6066L192.426 83.033C195.355 85.9619 200.104 85.9619 203.033 83.033C205.962 80.1041 205.962 75.3553 203.033 72.4264L155.303 24.6967ZM157.5 264V30H142.5V264H157.5Z" fill="#FACC15"/>
</g>
<defs>
<clipPath id="clip0_8_2">
<rect width="300" height="300" fill="white"/>
</clipPath>
</defs>
</svg>
